HIERARCHY
ROOT Hips
{
	OFFSET -0.001795 -0.223333 0.028219
	CHANNELS 6 Xposition Yposition Zposition Zrotation Yrotation Xrotation 
	JOINT LeftUpLeg
	{
		OFFSET 0.069520 -0.091406 -0.006815
		CHANNELS 3 Zrotation Yrotation Xrotation
		JOINT LeftLeg
		{
			OFFSET 0.034277 -0.375199 -0.004496
			CHANNELS 3 Zrotation Yrotation Xrotation
			JOINT LeftFoot
			{
				OFFSET -0.013596 -0.397961 -0.043693
				CHANNELS 3 Zrotation Yrotation Xrotation
				JOINT LeftToe
				{
					OFFSET 0.026358 -0.055791 0.119288
					CHANNELS 3 Zrotation Yrotation Xrotation
					End Site
					{
						OFFSET 0.000000 0.000000 0.000000
					}
				}
			}
		}
	}
	JOINT RightUpLeg
	{
		OFFSET -0.067670 -0.090522 -0.004320
		CHANNELS 3 Zrotation Yrotation Xrotation
		JOINT RightLeg
		{
			OFFSET -0.038290 -0.382569 -0.008850
			CHANNELS 3 Zrotation Yrotation Xrotation
			JOINT RightFoot
			{
				OFFSET 0.015774 -0.398415 -0.042312
				CHANNELS 3 Zrotation Yrotation Xrotation
				JOINT RightToe
				{
					OFFSET -0.025372 -0.048144 0.123348
					CHANNELS 3 Zrotation Yrotation Xrotation
					End Site
					{
						OFFSET 0.000000 0.000000 0.000000
					}
				}
			}
		}
	}
	JOINT Spine
	{
		OFFSET -0.002533 0.108963 -0.026696
		CHANNELS 3 Zrotation Yrotation Xrotation
		JOINT Spine1
		{
			OFFSET 0.005487 0.135180 0.001092
			CHANNELS 3 Zrotation Yrotation Xrotation
			JOINT Spine2
			{
				OFFSET 0.001457 0.052922 0.025425
				CHANNELS 3 Zrotation Yrotation Xrotation
				JOINT Neck
				{
					OFFSET -0.002778 0.213870 -0.042857
					CHANNELS 3 Zrotation Yrotation Xrotation
					JOINT Head
					{
						OFFSET 0.005152 0.064970 0.051349
						CHANNELS 3 Zrotation Yrotation Xrotation
						End Site
						{
							OFFSET 0.000000 0.000000 0.000000
						}
					}
				}
				JOINT LeftShoulder
				{
					OFFSET 0.078845 0.121749 -0.034090
					CHANNELS 3 Zrotation Yrotation Xrotation
					JOINT LeftArm
					{
						OFFSET 0.090977 0.030469 -0.008868
						CHANNELS 3 Zrotation Yrotation Xrotation
						JOINT LeftForeArm
						{
							OFFSET 0.259612 -0.012772 -0.027456
							CHANNELS 3 Zrotation Yrotation Xrotation
							JOINT LeftHand
							{
								OFFSET 0.249234 0.008986 -0.001171
								CHANNELS 3 Zrotation Yrotation Xrotation
								End Site
								{
									OFFSET 0.000000 0.000000 0.000000
								}
							}
						}
					}
				}
				JOINT RightShoulder
				{
					OFFSET -0.081759 0.118833 -0.038615
					CHANNELS 3 Zrotation Yrotation Xrotation
					JOINT RightArm
					{
						OFFSET -0.096012 0.032551 -0.009143
						CHANNELS 3 Zrotation Yrotation Xrotation
						JOINT RightForeArm
						{
							OFFSET -0.253742 -0.013329 -0.021401
							CHANNELS 3 Zrotation Yrotation Xrotation
							JOINT RightHand
							{
								OFFSET -0.255298 0.007772 -0.005559
								CHANNELS 3 Zrotation Yrotation Xrotation
								End Site
								{
									OFFSET 0.000000 0.000000 0.000000
								}
							}
						}
					}
				}
			}
		}
	}
}
MOTION
Frames: 7
Frame Time: 0.050000
0.000000 0.934866 0.000000 2.620102 3.663253 27.090069 1.445368 -2.129625 -24.251286 0.962239 -0.084698 -0.092220 1.542005 7.625382 11.557203 0.000000 0.000000 0.000000 -4.962392 1.909115 -35.374101 2.281690 -0.129409 7.415779 10.383193 17.883014 10.758095 0.000000 0.000000 0.000000 7.298944 -3.390440 22.001962 1.726700 -0.590596 -3.546384 2.520071 5.104205 12.081102 11.380048 -2.492374 -29.799525 0.000000 0.000000 0.000000 -20.709713 -16.721408 6.183045 -49.483932 -15.561873 0.317236 1.415965 -54.353012 1.158656 0.000000 0.000000 0.000000 11.502571 20.472754 10.864303 22.590409 45.309206 4.023897 -32.411606 21.060190 -3.756775 0.000000 0.000000 0.000000 
-0.002136 0.935666 -0.000969 2.543533 3.934727 27.448013 2.487460 -2.054414 -24.773570 -0.285825 0.027871 -0.106180 1.428564 7.586352 12.007220 0.000000 0.000000 0.000000 -4.121282 2.115576 -36.523344 1.161394 0.085936 8.714967 10.339277 17.769928 10.812183 0.000000 0.000000 0.000000 7.371881 -3.537093 22.760145 2.643534 -1.091731 -1.323197 1.171136 3.813154 9.519500 11.279950 -2.816114 -27.842949 0.000000 0.000000 0.000000 -22.068288 -12.959590 4.179734 -47.049793 -13.919502 -0.171205 -1.503218 -53.371807 2.715881 0.000000 0.000000 0.000000 11.723288 23.501872 12.361051 20.451802 46.504884 3.510439 -32.792318 18.325450 -3.183725 0.000000 0.000000 0.000000 
-0.004131 0.933522 -0.002876 2.316399 4.472964 27.549323 3.320492 -2.032955 -25.574800 -0.824076 0.050142 0.755966 1.466707 7.484046 11.268830 0.000000 0.000000 0.000000 -3.860969 2.115600 -36.140878 1.439712 0.011971 7.676326 10.029571 17.518375 10.332911 0.000000 0.000000 0.000000 6.989528 -3.540756 23.372571 1.432195 -0.645341 -0.167373 2.291565 3.528721 7.439168 10.554848 -3.086668 -24.129755 0.000000 0.000000 0.000000 -22.549158 -12.831781 4.161520 -47.117233 -13.745242 -0.059246 -2.167521 -49.725326 2.833110 0.000000 0.000000 0.000000 13.899558 24.509990 13.393542 15.201110 45.926925 1.552819 -28.210143 16.468351 -2.332228 0.000000 0.000000 0.000000 
-0.006078 0.934629 -0.005263 2.310506 5.223954 27.805994 3.540900 -2.119169 -26.537591 -0.656481 0.010434 1.474246 1.111096 7.093207 11.620118 0.000000 0.000000 0.000000 -3.517592 2.140550 -37.030074 1.117408 0.077677 8.622184 9.838375 16.933770 10.623253 0.000000 0.000000 0.000000 7.095776 -3.784332 24.462588 1.161030 -0.554097 0.179650 2.012041 3.416080 6.628073 10.296418 -2.901083 -24.146126 0.000000 0.000000 0.000000 -22.260673 -13.096308 4.244708 -46.183096 -13.246647 -0.166143 -1.258189 -48.338900 2.292566 0.000000 0.000000 0.000000 13.544226 26.720569 14.658349 12.376068 45.851129 0.601369 -27.493894 14.409895 -1.873534 0.000000 0.000000 0.000000 
-0.007439 0.934744 -0.008240 2.562385 6.441304 27.862045 3.411747 -2.223468 -26.704450 -0.359096 -0.007566 1.062302 0.474803 6.220613 11.740598 0.000000 0.000000 0.000000 -3.591347 1.958379 -36.597805 1.106351 0.049059 7.714933 9.353495 16.064364 10.498789 0.000000 0.000000 0.000000 6.954176 -3.911599 25.074079 0.802004 -0.394506 -0.129367 2.136433 3.047395 6.734546 9.874200 -2.927205 -22.622292 0.000000 0.000000 0.000000 -23.845107 -13.492389 4.416494 -43.672557 -12.923458 -0.267112 -2.185992 -46.604446 2.618487 0.000000 0.000000 0.000000 15.942607 28.720905 16.604591 6.786297 43.984977 -1.444219 -24.256413 12.815178 -1.398863 0.000000 0.000000 0.000000 
-0.008228 0.935419 -0.011423 2.586003 7.512974 28.152605 3.368217 -2.337678 -27.190764 0.137473 -0.043179 0.745181 -0.088679 5.519367 12.033884 0.000000 0.000000 0.000000 -3.726164 1.801219 -37.131285 1.481897 -0.027137 7.941724 9.014231 15.193576 10.809970 0.000000 0.000000 0.000000 7.193394 -4.092811 25.181120 0.398812 -0.250721 0.244562 1.955409 4.096328 6.047728 10.214537 -2.999758 -22.121469 0.000000 0.000000 0.000000 -24.465186 -14.545809 4.437956 -42.588946 -11.845471 -0.381807 -3.027733 -45.912284 2.727921 0.000000 0.000000 0.000000 15.398840 28.718146 16.905828 6.521845 43.269326 -1.460489 -23.601028 13.074812 -1.399013 0.000000 0.000000 0.000000 
-0.008291 0.935174 -0.014581 2.533897 8.152517 27.781103 3.694905 -2.359030 -27.546370 -0.169776 -0.045636 1.549733 -0.272027 5.176624 11.743973 0.000000 0.000000 0.000000 -3.669987 1.735057 -37.101522 1.582264 -0.049965 8.367203 8.748773 14.777655 10.640820 0.000000 0.000000 0.000000 6.937918 -4.071078 25.381748 -0.123915 -0.046373 0.525046 2.104420 4.439023 5.940737 9.863688 -2.943223 -21.077703 0.000000 0.000000 0.000000 -23.963121 -13.983642 3.825311 -42.336262 -10.383922 -0.790049 -4.248339 -46.835873 3.172733 0.000000 0.000000 0.000000 16.307205 29.355051 17.765548 6.079036 42.486090 -1.618335 -24.076018 15.009990 -1.777382 0.000000 0.000000 0.000000 
